<svg xmlns="http://www.w3.org/2000/svg" viewBox="0 0 512 512" role="img" aria-labelledby="title description">
<title id="title">Oak mesh: 1,096 triangles</title>
<desc id="description">Orthographic projection of the archived 1,000-target oak GLB, showing its actual triangle edges. Opaque faces hide back edges. No geometry was added or simplified.</desc>
<rect width="512" height="512" rx="16" fill="#f6f7f9"/>
<g fill="#dfe7ed" stroke="#354b5b" stroke-width="0.7" stroke-linejoin="round">
<polygon points="132.68,194.07 149.26,160.17 160.24,201.39"/>
<polygon points="132.68,194.07 160.24,201.39 161.57,233.79"/>
<polygon points="124.59,244.79 105.30,263.78 98.55,221.36"/>
<polygon points="132.68,194.07 128.03,179.13 149.26,160.17"/>
<polygon points="124.59,244.79 138.22,265.02 105.30,263.78"/>
<polygon points="160.24,201.39 149.26,160.17 185.67,201.44"/>
<polygon points="124.59,244.79 140.76,221.12 161.57,233.79"/>
<polygon points="123.23,197.93 128.03,179.13 132.68,194.07"/>
<polygon points="123.23,197.93 132.68,194.07 140.76,221.12"/>
<polygon points="132.68,194.07 161.57,233.79 140.76,221.12"/>
<polygon points="124.59,244.79 161.57,233.79 152.61,254.03"/>
<polygon points="124.59,244.79 98.55,221.36 121.35,207.35"/>
<polygon points="124.59,244.79 152.61,254.03 138.22,265.02"/>
<polygon points="185.67,201.44 184.77,243.42 166.70,248.50"/>
<polygon points="181.56,260.05 166.70,248.50 184.77,243.42"/>
<polygon points="124.59,244.79 121.35,207.35 140.76,221.12"/>
<polygon points="161.57,233.79 160.24,201.39 185.67,201.44"/>
<polygon points="156.27,268.90 161.57,233.79 166.70,248.50"/>
<polygon points="123.23,197.93 101.02,204.11 103.73,164.37"/>
<polygon points="205.06,208.62 184.77,243.42 185.67,201.44"/>
<polygon points="181.56,260.05 156.27,268.90 166.70,248.50"/>
<polygon points="172.67,186.09 149.26,160.17 154.57,160.71"/>
<polygon points="172.67,186.09 185.67,201.44 149.26,160.17"/>
<polygon points="128.03,179.13 138.76,166.43 149.26,160.17"/>
<polygon points="123.23,197.93 103.73,164.37 128.03,179.13"/>
<polygon points="161.57,233.79 185.67,201.44 166.70,248.50"/>
<polygon points="154.57,160.71 149.26,160.17 138.76,166.43"/>
<polygon points="152.61,254.03 161.57,233.79 156.27,268.90"/>
<polygon points="99.62,240.11 98.55,221.36 105.30,263.78"/>
<polygon points="123.23,197.93 121.35,207.35 101.02,204.11"/>
<polygon points="181.56,260.05 184.77,243.42 202.98,268.42"/>
<polygon points="172.67,186.09 154.57,160.71 185.64,167.44"/>
<polygon points="128.03,179.13 103.73,164.37 138.76,166.43"/>
<polygon points="123.23,197.93 140.76,221.12 121.35,207.35"/>
<polygon points="88.18,221.20 101.02,204.11 121.35,207.35"/>
<polygon points="88.18,221.20 98.55,221.36 99.62,240.11"/>
<polygon points="212.99,240.73 184.77,243.42 205.06,208.62"/>
<polygon points="88.18,221.20 121.35,207.35 98.55,221.36"/>
<polygon points="88.18,221.20 86.05,202.26 101.02,204.11"/>
<polygon points="115.50,265.61 105.30,263.78 138.22,265.02"/>
<polygon points="101.02,204.11 89.65,178.41 103.73,164.37"/>
<polygon points="212.99,240.73 202.98,268.42 184.77,243.42"/>
<polygon points="152.61,254.03 156.27,268.90 143.47,269.33"/>
<polygon points="181.56,260.05 174.71,269.03 156.27,268.90"/>
<polygon points="103.23,260.27 99.62,240.11 105.30,263.78"/>
<polygon points="172.67,186.09 186.10,204.74 185.67,201.44"/>
<polygon points="152.61,254.03 143.47,269.33 138.22,265.02"/>
<polygon points="172.67,186.09 185.64,167.44 186.10,204.74"/>
<polygon points="154.57,160.71 177.06,148.41 185.64,167.44"/>
<polygon points="101.02,204.11 86.05,202.26 89.65,178.41"/>
<polygon points="103.23,260.27 105.30,263.78 115.50,265.61"/>
<polygon points="88.18,221.20 99.62,240.11 64.57,245.52"/>
<polygon points="186.10,204.74 205.06,208.62 185.67,201.44"/>
<polygon points="115.50,265.61 138.22,265.02 143.47,269.33"/>
<polygon points="156.27,268.90 174.71,269.03 143.47,269.33"/>
<polygon points="106.86,171.01 138.76,166.43 103.73,164.37"/>
<polygon points="162.48,159.03 154.57,160.71 138.76,166.43"/>
<polygon points="64.66,213.44 86.05,202.26 88.18,221.20"/>
<polygon points="181.56,260.05 202.98,268.42 174.71,269.03"/>
<polygon points="103.23,260.27 64.57,245.52 99.62,240.11"/>
<polygon points="212.99,240.73 205.06,208.62 208.45,202.26"/>
<polygon points="106.86,171.01 103.73,164.37 89.65,178.41"/>
<polygon points="186.10,204.74 185.64,167.44 194.21,181.76"/>
<polygon points="186.10,204.74 208.45,202.26 205.06,208.62"/>
<polygon points="86.05,202.26 70.96,184.90 89.65,178.41"/>
<polygon points="177.06,148.41 194.21,181.76 185.64,167.44"/>
<polygon points="162.48,159.03 177.06,148.41 154.57,160.71"/>
<polygon points="64.66,213.44 70.96,184.90 86.05,202.26"/>
<polygon points="106.86,171.01 121.81,139.67 138.76,166.43"/>
<polygon points="103.23,260.27 115.50,265.61 116.46,295.12"/>
<polygon points="115.50,265.61 143.47,269.33 116.46,295.12"/>
<polygon points="162.48,159.03 138.76,166.43 121.81,139.67"/>
<polygon points="256.67,385.99 257.68,428.28 224.87,431.55"/>
<polygon points="196.97,255.53 202.98,268.42 212.99,240.73"/>
<polygon points="65.85,235.14 88.18,221.20 64.57,245.52"/>
<polygon points="196.97,255.53 174.71,269.03 202.98,268.42"/>
<polygon points="103.23,260.27 94.02,264.33 64.57,245.52"/>
<polygon points="208.01,222.07 212.99,240.73 208.45,202.26"/>
<polygon points="257.15,441.61 224.87,431.55 257.68,428.28"/>
<polygon points="64.66,213.44 88.18,221.20 65.85,235.14"/>
<polygon points="280.41,164.28 238.33,182.98 257.41,130.65"/>
<polygon points="169.51,286.39 143.47,269.33 174.71,269.03"/>
<polygon points="279.45,388.92 294.39,433.06 257.68,428.28"/>
<polygon points="196.97,255.53 212.99,240.73 208.01,222.07"/>
<polygon points="78.07,185.42 89.65,178.41 70.96,184.90"/>
<polygon points="257.15,441.61 257.68,428.28 294.39,433.06"/>
<polygon points="186.10,204.74 214.13,189.23 208.45,202.26"/>
<polygon points="186.10,204.74 194.21,181.76 214.13,189.23"/>
<polygon points="134.93,279.42 116.46,295.12 143.47,269.33"/>
<polygon points="64.66,213.44 58.38,192.34 70.96,184.90"/>
<polygon points="103.23,260.27 116.46,295.12 99.73,273.99"/>
<polygon points="106.76,155.79 106.86,171.01 89.65,178.41"/>
<polygon points="106.76,155.79 121.81,139.67 106.86,171.01"/>
<polygon points="77.86,160.65 89.65,178.41 78.07,185.42"/>
<polygon points="162.48,159.03 121.81,139.67 137.84,138.63"/>
<polygon points="257.41,130.65 238.33,182.98 235.56,145.67"/>
<polygon points="106.76,155.79 89.65,178.41 77.86,160.65"/>
<polygon points="196.97,255.53 184.59,271.02 174.71,269.03"/>
<polygon points="169.51,286.39 146.10,300.29 143.47,269.33"/>
<polygon points="256.67,385.99 279.45,388.92 257.68,428.28"/>
<polygon points="169.51,286.39 174.71,269.03 184.59,271.02"/>
<polygon points="214.13,189.23 194.21,181.76 210.02,179.00"/>
<polygon points="257.41,130.65 235.56,145.67 239.04,110.53"/>
<polygon points="134.93,279.42 143.47,269.33 146.10,300.29"/>
<polygon points="280.41,164.28 257.41,130.65 294.18,120.26"/>
<polygon points="280.41,164.28 268.36,183.69 238.33,182.98"/>
<polygon points="208.01,222.07 208.45,202.26 225.75,208.58"/>
<polygon points="103.23,260.27 99.73,273.99 94.02,264.33"/>
<polygon points="106.76,155.79 137.84,138.63 121.81,139.67"/>
<polygon points="64.57,245.52 94.02,264.33 80.16,251.81"/>
<polygon points="58.38,192.34 78.07,185.42 70.96,184.90"/>
<polygon points="256.67,385.99 224.87,431.55 239.35,388.55"/>
<polygon points="214.13,189.23 225.75,208.58 208.45,202.26"/>
<polygon points="162.48,159.03 166.84,156.85 177.06,148.41"/>
<polygon points="190.76,175.75 194.21,181.76 177.06,148.41"/>
<polygon points="196.97,255.53 216.43,269.84 184.59,271.02"/>
<polygon points="223.44,146.11 239.04,110.53 235.56,145.67"/>
<polygon points="235.56,145.67 238.33,182.98 227.25,166.27"/>
<polygon points="65.85,235.14 64.57,245.52 80.16,251.81"/>
<polygon points="208.71,441.50 239.35,388.55 224.87,431.55"/>
<polygon points="196.97,255.53 208.01,222.07 221.46,235.26"/>
<polygon points="271.65,124.37 257.41,130.65 239.04,110.53"/>
<polygon points="190.76,175.75 210.02,179.00 194.21,181.76"/>
<polygon points="280.41,164.28 294.18,120.26 289.34,165.60"/>
<polygon points="208.71,441.50 224.87,431.55 257.15,441.61"/>
<polygon points="64.66,213.44 66.18,213.61 58.38,192.34"/>
<polygon points="280.41,164.28 289.34,165.60 268.36,183.69"/>
<polygon points="106.76,155.79 77.86,160.65 89.32,156.33"/>
<polygon points="162.48,159.03 137.84,138.63 145.97,149.84"/>
<polygon points="77.86,160.65 78.07,185.42 66.24,167.12"/>
<polygon points="134.93,279.42 123.35,281.62 116.46,295.12"/>
<polygon points="64.66,213.44 65.85,235.14 66.18,213.61"/>
<polygon points="257.15,441.61 294.39,433.06 306.45,441.78"/>
<polygon points="190.76,175.75 177.06,148.41 166.84,156.85"/>
<polygon points="294.18,120.26 304.84,105.32 326.92,122.57"/>
<polygon points="196.97,255.53 221.46,235.26 216.43,269.84"/>
<polygon points="208.01,222.07 225.75,208.58 221.46,235.26"/>
<polygon points="223.44,146.11 214.51,128.38 239.04,110.53"/>
<polygon points="184.47,173.93 207.86,144.32 227.25,166.27"/>
<polygon points="223.44,146.11 227.25,166.27 207.86,144.32"/>
<polygon points="271.65,124.37 294.18,120.26 257.41,130.65"/>
<polygon points="123.35,281.62 99.73,273.99 116.46,295.12"/>
<polygon points="99.73,273.99 78.79,279.98 94.02,264.33"/>
<polygon points="223.44,146.11 235.56,145.67 227.25,166.27"/>
<polygon points="106.76,155.79 145.97,149.84 137.84,138.63"/>
<polygon points="305.12,189.16 289.34,165.60 323.78,175.12"/>
<polygon points="294.18,120.26 326.92,122.57 289.34,165.60"/>
<polygon points="169.51,286.39 184.59,271.02 176.82,278.22"/>
<polygon points="78.79,279.98 80.16,251.81 94.02,264.33"/>
<polygon points="162.48,159.03 145.97,149.84 166.84,156.85"/>
<polygon points="77.86,160.65 66.24,167.12 89.32,156.33"/>
<polygon points="169.51,286.39 155.75,294.53 146.10,300.29"/>
<polygon points="134.93,279.42 146.10,300.29 123.35,281.62"/>
<polygon points="284.95,394.46 294.39,433.06 279.45,388.92"/>
<polygon points="214.13,189.23 210.02,179.00 217.17,179.64"/>
<polygon points="223.44,146.11 207.86,144.32 214.51,128.38"/>
<polygon points="184.59,271.02 216.43,269.84 176.82,278.22"/>
<polygon points="284.95,394.46 306.45,441.78 294.39,433.06"/>
<polygon points="271.65,124.37 304.84,105.32 294.18,120.26"/>
<polygon points="289.34,165.60 284.48,214.45 268.36,183.69"/>
<polygon points="169.85,136.91 207.86,144.32 184.47,173.93"/>
<polygon points="225.50,207.89 227.25,166.27 238.33,182.98"/>
<polygon points="58.38,192.34 70.93,190.07 78.07,185.42"/>
<polygon points="305.12,189.16 284.48,214.45 289.34,165.60"/>
<polygon points="228.62,92.80 239.04,110.53 214.51,128.38"/>
<polygon points="228.62,92.80 271.65,124.37 239.04,110.53"/>
<polygon points="259.06,208.78 238.33,182.98 268.36,183.69"/>
<polygon points="327.87,72.80 326.92,122.57 304.84,105.32"/>
<polygon points="214.13,189.23 217.17,179.64 225.75,208.58"/>
<polygon points="247.80,334.08 256.67,385.99 239.35,388.55"/>
<polygon points="305.12,189.16 323.78,175.12 347.58,198.44"/>
<polygon points="66.24,167.12 78.07,185.42 70.93,190.07"/>
<polygon points="289.34,165.60 322.71,152.78 323.78,175.12"/>
<polygon points="66.18,213.61 70.93,190.07 58.38,192.34"/>
<polygon points="190.76,175.75 217.17,179.64 210.02,179.00"/>
<polygon points="169.51,286.39 176.82,278.22 155.75,294.53"/>
<polygon points="78.79,279.98 64.93,241.63 80.16,251.81"/>
<polygon points="214.51,128.38 207.86,144.32 196.82,130.22"/>
<polygon points="65.85,235.14 80.16,251.81 64.93,241.63"/>
<polygon points="105.04,284.24 78.79,279.98 99.73,273.99"/>
<polygon points="256.67,385.99 275.85,329.20 279.45,388.92"/>
<polygon points="289.34,165.60 326.92,122.57 322.71,152.78"/>
<polygon points="184.47,173.93 227.25,166.27 225.50,207.89"/>
<polygon points="169.85,136.91 196.82,130.22 207.86,144.32"/>
<polygon points="221.46,235.26 215.60,256.82 216.43,269.84"/>
<polygon points="336.05,147.75 347.58,198.44 323.78,175.12"/>
<polygon points="271.65,124.37 297.62,85.85 304.84,105.32"/>
<polygon points="123.35,281.62 146.10,300.29 155.75,294.53"/>
<polygon points="230.26,393.20 239.35,388.55 208.71,441.50"/>
<polygon points="152.85,240.46 154.54,236.57 214.33,289.81"/>
<polygon points="255.22,326.12 256.67,385.99 247.80,334.08"/>
<polygon points="169.85,136.91 184.47,173.93 171.31,194.05"/>
<polygon points="152.85,240.46 151.57,235.14 154.54,236.57"/>
<polygon points="152.85,240.46 150.84,243.68 151.57,235.14"/>
<polygon points="106.76,155.79 89.32,156.33 121.48,132.31"/>
<polygon points="152.85,240.46 211.27,295.16 150.84,243.68"/>
<polygon points="336.05,147.75 323.78,175.12 322.71,152.78"/>
<polygon points="259.06,208.78 225.50,207.89 238.33,182.98"/>
<polygon points="106.76,155.79 121.48,132.31 145.97,149.84"/>
<polygon points="327.87,72.80 304.84,105.32 297.62,85.85"/>
<polygon points="156.01,142.60 166.84,156.85 145.97,149.84"/>
<polygon points="259.06,208.78 268.36,183.69 284.48,214.45"/>
<polygon points="221.46,235.26 225.75,208.58 215.63,224.31"/>
<polygon points="155.02,233.20 154.54,236.57 151.57,235.14"/>
<polygon points="255.22,326.12 275.85,329.20 256.67,385.99"/>
<polygon points="123.35,281.62 105.04,284.24 99.73,273.99"/>
<polygon points="65.85,235.14 60.88,228.38 66.18,213.61"/>
<polygon points="327.87,72.80 347.69,117.19 326.92,122.57"/>
<polygon points="190.76,175.75 166.84,156.85 200.66,165.18"/>
<polygon points="216.92,282.23 154.54,236.57 155.02,233.20"/>
<polygon points="150.84,243.68 148.39,245.18 151.57,235.14"/>
<polygon points="247.80,334.08 239.35,388.55 244.13,335.49"/>
<polygon points="184.47,173.93 225.50,207.89 171.31,194.05"/>
<polygon points="230.26,393.20 244.13,335.49 239.35,388.55"/>
<polygon points="152.85,240.46 214.33,289.81 211.27,295.16"/>
<polygon points="228.62,92.80 214.51,128.38 196.82,130.22"/>
<polygon points="204.41,264.77 176.82,278.22 216.43,269.84"/>
<polygon points="305.12,189.16 314.70,203.36 284.48,214.45"/>
<polygon points="347.69,117.19 322.71,152.78 326.92,122.57"/>
<polygon points="216.92,282.23 214.33,289.81 154.54,236.57"/>
<polygon points="66.24,167.12 91.66,165.25 89.32,156.33"/>
<polygon points="228.62,92.80 248.57,81.35 271.65,124.37"/>
<polygon points="228.62,92.80 196.82,130.22 193.94,78.34"/>
<polygon points="228.62,92.80 193.94,78.34 248.57,81.35"/>
<polygon points="66.18,213.61 60.88,228.38 70.93,190.07"/>
<polygon points="271.65,124.37 248.57,81.35 283.62,65.45"/>
<polygon points="271.65,124.37 283.62,65.45 297.62,85.85"/>
<polygon points="204.41,264.77 216.43,269.84 215.60,256.82"/>
<polygon points="208.71,441.50 257.15,441.61 220.61,450.46"/>
<polygon points="66.24,167.12 70.93,190.07 85.18,183.82"/>
<polygon points="148.16,242.68 151.57,235.14 148.39,245.18"/>
<polygon points="206.26,297.73 148.39,245.18 150.84,243.68"/>
<polygon points="156.01,142.60 200.66,165.18 166.84,156.85"/>
<polygon points="255.22,326.12 247.80,334.08 247.75,324.97"/>
<polygon points="65.85,235.14 64.93,241.63 87.86,226.68"/>
<polygon points="214.33,289.81 247.75,324.97 211.27,295.16"/>
<polygon points="217.17,179.64 215.63,224.31 225.75,208.58"/>
<polygon points="247.80,334.08 211.27,295.16 247.75,324.97"/>
<polygon points="150.55,238.97 151.57,235.14 148.16,242.68"/>
<polygon points="257.15,441.61 306.45,441.78 289.37,451.74"/>
<polygon points="206.26,297.73 150.84,243.68 211.27,295.16"/>
<polygon points="255.22,326.12 247.75,324.97 256.10,309.64"/>
<polygon points="221.46,235.26 215.63,224.31 215.60,256.82"/>
<polygon points="214.33,289.81 251.71,313.51 247.75,324.97"/>
<polygon points="78.79,279.98 70.61,276.90 64.93,241.63"/>
<polygon points="216.92,282.23 155.02,233.20 217.23,278.71"/>
<polygon points="247.80,334.08 244.13,335.49 211.27,295.16"/>
<polygon points="190.76,175.75 200.66,165.18 217.17,179.64"/>
<polygon points="216.92,282.23 251.71,313.51 214.33,289.81"/>
<polygon points="156.01,142.60 145.97,149.84 136.28,152.54"/>
<polygon points="284.95,394.46 279.45,388.92 278.18,340.81"/>
<polygon points="305.12,189.16 347.58,198.44 314.70,203.36"/>
<polygon points="105.04,284.24 70.61,276.90 78.79,279.98"/>
<polygon points="256.10,309.64 247.75,324.97 251.71,313.51"/>
<polygon points="65.85,235.14 87.86,226.68 60.88,228.38"/>
<polygon points="230.26,393.20 208.71,441.50 220.61,450.46"/>
<polygon points="66.24,167.12 85.18,183.82 91.66,165.25"/>
<polygon points="169.85,136.91 190.58,127.44 196.82,130.22"/>
<polygon points="91.66,165.25 121.48,132.31 89.32,156.33"/>
<polygon points="190.58,127.44 193.94,78.34 196.82,130.22"/>
<polygon points="259.06,208.78 284.48,214.45 276.62,216.11"/>
<polygon points="278.18,340.81 279.45,388.92 275.85,329.20"/>
<polygon points="155.02,233.20 151.57,235.14 211.81,281.91"/>
<polygon points="148.16,242.68 148.39,245.18 204.72,294.95"/>
<polygon points="155.75,294.53 176.82,278.22 164.57,282.86"/>
<polygon points="284.95,394.46 275.75,399.76 306.45,441.78"/>
<polygon points="206.26,297.73 211.27,295.16 244.13,335.49"/>
<polygon points="123.35,281.62 155.75,294.53 146.15,286.31"/>
<polygon points="136.28,152.54 145.97,149.84 121.48,132.31"/>
<polygon points="255.22,326.12 256.10,309.64 273.60,311.82"/>
<polygon points="327.87,72.80 335.33,92.45 347.69,117.19"/>
<polygon points="255.22,326.12 273.60,311.82 275.85,329.20"/>
<polygon points="283.62,65.45 298.77,77.83 297.62,85.85"/>
<polygon points="216.92,282.23 245.84,308.23 251.71,313.51"/>
<polygon points="268.34,47.28 283.62,65.45 248.57,81.35"/>
<polygon points="150.55,238.97 211.81,281.91 151.57,235.14"/>
<polygon points="155.02,233.20 211.81,281.91 217.23,278.71"/>
<polygon points="114.30,276.67 105.04,284.24 123.35,281.62"/>
<polygon points="150.55,238.97 148.16,242.68 207.48,287.81"/>
<polygon points="256.10,309.64 251.71,313.51 245.84,308.23"/>
<polygon points="301.07,213.69 276.62,216.11 284.48,214.45"/>
<polygon points="216.92,282.23 217.23,278.71 245.84,308.23"/>
<polygon points="230.26,393.20 236.69,340.62 244.13,335.49"/>
<polygon points="327.87,72.80 297.62,85.85 298.77,77.83"/>
<polygon points="336.05,147.75 352.96,171.62 347.58,198.44"/>
<polygon points="206.26,297.73 204.72,294.95 148.39,245.18"/>
<polygon points="314.70,203.36 301.07,213.69 284.48,214.45"/>
<polygon points="169.85,136.91 171.31,194.05 158.34,143.74"/>
<polygon points="213.88,82.23 248.57,81.35 193.94,78.34"/>
<polygon points="70.93,190.07 61.85,186.95 85.18,183.82"/>
<polygon points="59.85,198.83 70.93,190.07 60.88,228.38"/>
<polygon points="70.61,276.90 87.86,226.68 64.93,241.63"/>
<polygon points="206.26,297.73 244.13,335.49 236.69,340.62"/>
<polygon points="179.27,193.70 171.31,194.05 225.50,207.89"/>
<polygon points="273.60,311.82 280.76,328.79 275.85,329.20"/>
<polygon points="259.06,208.78 236.40,238.31 225.50,207.89"/>
<polygon points="155.75,294.53 164.57,282.86 146.15,286.31"/>
<polygon points="275.75,399.76 289.37,451.74 306.45,441.78"/>
<polygon points="123.35,281.62 146.15,286.31 110.64,296.27"/>
<polygon points="148.16,242.68 204.72,294.95 207.48,287.81"/>
<polygon points="156.01,142.60 159.97,151.77 200.66,165.18"/>
<polygon points="114.30,276.67 123.35,281.62 110.64,296.27"/>
<polygon points="278.18,340.81 275.85,329.20 280.76,328.79"/>
<polygon points="228.95,263.12 215.60,256.82 215.63,224.31"/>
<polygon points="327.87,72.80 298.77,77.83 335.33,92.45"/>
<polygon points="336.05,147.75 322.71,152.78 327.67,139.16"/>
<polygon points="211.81,281.91 245.84,308.23 217.23,278.71"/>
<polygon points="255.88,264.49 256.10,309.64 245.84,308.23"/>
<polygon points="230.26,393.20 236.23,397.84 236.69,340.62"/>
<polygon points="169.85,136.91 158.34,143.74 190.58,127.44"/>
<polygon points="230.26,393.20 220.61,450.46 236.23,397.84"/>
<polygon points="150.55,238.97 207.48,287.81 211.81,281.91"/>
<polygon points="268.34,47.28 298.77,77.83 283.62,65.45"/>
<polygon points="327.67,139.16 322.71,152.78 347.69,117.19"/>
<polygon points="273.60,311.82 275.87,316.43 280.76,328.79"/>
<polygon points="156.01,142.60 136.28,152.54 159.97,151.77"/>
<polygon points="190.58,127.44 188.35,83.85 193.94,78.34"/>
<polygon points="343.45,123.88 347.69,117.19 335.33,92.45"/>
<polygon points="257.15,441.61 256.92,455.00 220.61,450.46"/>
<polygon points="228.95,263.12 204.41,264.77 215.60,256.82"/>
<polygon points="199.07,210.09 215.63,224.31 217.17,179.64"/>
<polygon points="59.85,198.83 61.85,186.95 70.93,190.07"/>
<polygon points="273.60,311.82 256.10,309.64 270.15,266.03"/>
<polygon points="206.26,297.73 236.69,340.62 204.72,294.95"/>
<polygon points="257.15,441.61 289.37,451.74 256.92,455.00"/>
<polygon points="371.84,230.15 396.16,267.82 351.40,258.50"/>
<polygon points="249.19,69.35 268.34,47.28 248.57,81.35"/>
<polygon points="77.60,224.95 60.88,228.38 87.86,226.68"/>
<polygon points="204.41,264.77 187.63,286.74 176.82,278.22"/>
<polygon points="353.23,286.33 351.40,258.50 396.16,267.82"/>
<polygon points="259.06,208.78 266.23,222.36 236.40,238.31"/>
<polygon points="187.63,286.74 164.57,282.86 176.82,278.22"/>
<polygon points="259.06,208.78 276.62,216.11 266.23,222.36"/>
<polygon points="273.60,311.82 275.60,312.47 275.87,316.43"/>
<polygon points="200.66,165.18 205.67,186.07 217.17,179.64"/>
<polygon points="284.95,394.46 278.18,340.81 269.62,344.55"/>
<polygon points="125.25,161.69 121.48,132.31 91.66,165.25"/>
<polygon points="255.88,264.49 270.15,266.03 256.10,309.64"/>
<polygon points="336.05,147.75 327.67,139.16 352.96,171.62"/>
<polygon points="91.66,165.25 85.18,183.82 84.33,161.97"/>
<polygon points="211.81,281.91 239.24,312.13 245.84,308.23"/>
<polygon points="249.19,69.35 248.57,81.35 213.88,82.23"/>
<polygon points="213.88,82.23 193.94,78.34 188.35,83.85"/>
<polygon points="388.49,228.58 396.16,267.82 371.84,230.15"/>
<polygon points="125.25,161.69 136.28,152.54 121.48,132.31"/>
<polygon points="378.19,283.82 353.23,286.33 396.16,267.82"/>
<polygon points="255.88,264.49 245.84,308.23 245.98,265.51"/>
<polygon points="284.95,394.46 269.62,344.55 275.75,399.76"/>
<polygon points="114.30,276.67 112.63,263.01 105.04,284.24"/>
<polygon points="105.04,284.24 112.63,263.01 70.61,276.90"/>
<polygon points="94.43,249.00 87.86,226.68 70.61,276.90"/>
<polygon points="327.67,139.16 347.69,117.19 343.45,123.88"/>
<polygon points="332.92,209.72 314.70,203.36 347.58,198.44"/>
<polygon points="77.60,224.95 59.85,198.83 60.88,228.38"/>
<polygon points="161.81,102.41 190.58,127.44 158.34,143.74"/>
<polygon points="371.84,230.15 351.40,258.50 356.55,221.62"/>
<polygon points="234.55,333.91 204.72,294.95 236.69,340.62"/>
<polygon points="161.81,102.41 188.35,83.85 190.58,127.44"/>
<polygon points="245.98,265.51 245.84,308.23 239.24,312.13"/>
<polygon points="211.81,281.91 207.48,287.81 239.24,312.13"/>
<polygon points="228.95,263.12 215.63,224.31 216.11,224.72"/>
<polygon points="344.98,181.76 347.58,198.44 352.96,171.62"/>
<polygon points="199.07,210.09 216.11,224.72 215.63,224.31"/>
<polygon points="77.60,224.95 87.86,226.68 94.43,249.00"/>
<polygon points="236.40,238.31 204.20,218.49 225.50,207.89"/>
<polygon points="301.07,213.69 294.08,246.32 276.62,216.11"/>
<polygon points="207.48,287.81 204.72,294.95 238.91,321.51"/>
<polygon points="239.35,336.19 236.69,340.62 236.23,397.84"/>
<polygon points="266.23,222.36 276.62,216.11 294.08,246.32"/>
<polygon points="146.15,286.31 164.57,282.86 164.52,274.98"/>
<polygon points="200.66,165.18 159.97,151.77 188.24,159.18"/>
<polygon points="228.95,263.12 202.65,264.55 204.41,264.77"/>
<polygon points="179.27,193.70 157.18,168.16 171.31,194.05"/>
<polygon points="273.60,311.82 273.79,267.82 275.60,312.47"/>
<polygon points="236.23,397.84 220.61,450.46 256.92,455.00"/>
<polygon points="199.07,210.09 217.17,179.64 205.67,186.07"/>
<polygon points="378.19,283.82 396.16,267.82 398.03,274.29"/>
<polygon points="348.06,274.48 351.40,258.50 353.23,286.33"/>
<polygon points="157.18,168.16 158.34,143.74 171.31,194.05"/>
<polygon points="275.75,399.76 258.50,400.70 289.37,451.74"/>
<polygon points="275.87,316.43 318.99,303.59 280.76,328.79"/>
<polygon points="388.49,228.58 398.03,274.29 396.16,267.82"/>
<polygon points="273.60,311.82 270.15,266.03 273.79,267.82"/>
<polygon points="234.55,333.91 238.91,321.51 204.72,294.95"/>
<polygon points="298.77,77.83 354.73,82.60 335.33,92.45"/>
<polygon points="278.18,340.81 280.76,328.79 318.99,303.59"/>
<polygon points="114.30,276.67 110.64,296.27 112.63,263.01"/>
<polygon points="207.48,287.81 238.91,321.51 239.24,312.13"/>
<polygon points="110.64,296.27 146.15,286.31 132.97,289.17"/>
<polygon points="239.35,336.19 234.55,333.91 236.69,340.62"/>
<polygon points="89.88,196.07 85.18,183.82 61.85,186.95"/>
<polygon points="239.35,336.19 236.23,397.84 258.50,400.70"/>
<polygon points="179.27,193.70 225.50,207.89 204.20,218.49"/>
<polygon points="258.50,400.70 236.23,397.84 256.92,455.00"/>
<polygon points="348.06,274.48 356.55,221.62 351.40,258.50"/>
<polygon points="343.45,123.88 335.33,92.45 354.73,82.60"/>
<polygon points="344.98,181.76 332.92,209.72 347.58,198.44"/>
<polygon points="200.66,165.18 188.24,159.18 205.67,186.07"/>
<polygon points="268.34,47.28 287.52,65.52 298.77,77.83"/>
<polygon points="125.25,161.69 91.66,165.25 106.75,156.21"/>
<polygon points="94.43,249.00 70.61,276.90 112.63,263.01"/>
<polygon points="204.41,264.77 202.65,264.55 187.63,286.74"/>
<polygon points="275.75,399.76 269.62,344.55 258.50,400.70"/>
<polygon points="275.87,316.43 275.60,312.47 315.36,296.71"/>
<polygon points="388.49,228.58 371.84,230.15 372.47,229.14"/>
<polygon points="371.84,230.15 356.55,221.62 372.47,229.14"/>
<polygon points="91.66,165.25 84.33,161.97 106.75,156.21"/>
<polygon points="236.40,238.31 266.23,222.36 255.98,237.59"/>
<polygon points="258.50,400.70 256.92,455.00 289.37,451.74"/>
<polygon points="355.78,202.60 356.55,221.62 329.58,222.27"/>
<polygon points="75.96,209.71 59.85,198.83 77.60,224.95"/>
<polygon points="240.71,268.89 245.98,265.51 239.24,312.13"/>
<polygon points="378.19,283.82 365.28,293.06 353.23,286.33"/>
<polygon points="255.88,264.49 245.98,265.51 250.74,203.12"/>
<polygon points="187.63,286.74 164.52,274.98 164.57,282.86"/>
<polygon points="159.97,151.77 136.28,152.54 145.34,144.01"/>
<polygon points="89.88,196.07 84.33,161.97 85.18,183.82"/>
<polygon points="321.75,248.23 329.58,222.27 356.55,221.62"/>
<polygon points="255.88,264.49 260.25,202.98 270.15,266.03"/>
<polygon points="89.88,196.07 61.85,186.95 59.85,198.83"/>
<polygon points="314.70,203.36 312.89,215.31 301.07,213.69"/>
<polygon points="240.91,318.25 239.24,312.13 238.91,321.51"/>
<polygon points="249.19,69.35 213.88,82.23 226.70,41.76"/>
<polygon points="114.80,279.38 112.63,263.01 110.64,296.27"/>
<polygon points="240.91,318.25 238.91,321.51 234.55,333.91"/>
<polygon points="239.35,336.19 240.91,318.25 234.55,333.91"/>
<polygon points="114.80,279.38 110.64,296.27 132.97,289.17"/>
<polygon points="378.19,283.82 398.03,274.29 401.45,299.89"/>
<polygon points="158.59,294.53 146.15,286.31 164.52,274.98"/>
<polygon points="147.58,111.36 161.81,102.41 158.34,143.74"/>
<polygon points="274.74,269.07 275.60,312.47 273.79,267.82"/>
<polygon points="77.60,224.95 94.43,249.00 69.81,231.60"/>
<polygon points="269.62,344.55 278.18,340.81 316.70,309.03"/>
<polygon points="125.25,161.69 145.34,144.01 136.28,152.54"/>
<polygon points="147.58,111.36 188.35,83.85 161.81,102.41"/>
<polygon points="348.06,274.48 321.75,248.23 356.55,221.62"/>
<polygon points="228.95,263.12 199.46,233.84 202.65,264.55"/>
<polygon points="132.97,289.17 146.15,286.31 158.59,294.53"/>
<polygon points="228.95,263.12 216.11,224.72 199.46,233.84"/>
<polygon points="348.06,274.48 325.77,283.17 321.75,248.23"/>
<polygon points="240.91,318.25 240.71,268.89 239.24,312.13"/>
<polygon points="348.06,274.48 353.23,286.33 365.28,293.06"/>
<polygon points="368.25,135.70 327.67,139.16 343.45,123.88"/>
<polygon points="266.23,222.36 294.08,246.32 255.98,237.59"/>
<polygon points="372.47,229.14 356.55,221.62 355.78,202.60"/>
<polygon points="199.07,210.09 199.46,233.84 216.11,224.72"/>
<polygon points="239.35,336.19 258.50,400.70 259.43,338.01"/>
<polygon points="213.88,82.23 188.35,83.85 211.14,66.16"/>
<polygon points="317.74,63.26 298.77,77.83 287.52,65.52"/>
<polygon points="388.49,228.58 422.25,235.48 399.28,264.42"/>
<polygon points="388.49,228.58 399.28,264.42 398.03,274.29"/>
<polygon points="259.43,338.01 258.50,400.70 269.62,344.55"/>
<polygon points="301.07,213.69 312.89,215.31 294.08,246.32"/>
<polygon points="275.87,316.43 315.36,296.71 318.99,303.59"/>
<polygon points="249.19,69.35 275.17,63.61 268.34,47.28"/>
<polygon points="236.40,238.31 219.82,246.33 204.20,218.49"/>
<polygon points="327.67,139.16 354.66,160.57 352.96,171.62"/>
<polygon points="388.49,228.58 372.47,229.14 400.67,215.37"/>
<polygon points="378.19,283.82 401.45,299.89 365.28,293.06"/>
<polygon points="75.96,209.71 77.60,224.95 69.81,231.60"/>
<polygon points="75.96,209.71 89.88,196.07 59.85,198.83"/>
<polygon points="255.88,264.49 250.74,203.12 260.25,202.98"/>
<polygon points="236.40,238.31 255.98,237.59 219.82,246.33"/>
<polygon points="278.18,340.81 318.99,303.59 316.70,309.03"/>
<polygon points="388.49,228.58 431.79,197.35 422.25,235.48"/>
<polygon points="325.77,283.17 311.96,268.61 321.75,248.23"/>
<polygon points="226.70,41.76 213.88,82.23 211.14,66.16"/>
<polygon points="332.92,209.72 312.89,215.31 314.70,203.36"/>
<polygon points="269.91,204.49 273.79,267.82 270.15,266.03"/>
<polygon points="396.46,194.61 400.67,215.37 372.47,229.14"/>
<polygon points="401.45,299.89 398.03,274.29 399.28,264.42"/>
<polygon points="240.71,268.89 246.11,204.32 245.98,265.51"/>
<polygon points="239.35,336.19 258.05,320.52 240.91,318.25"/>
<polygon points="348.06,274.48 347.63,291.31 325.77,283.17"/>
<polygon points="321.72,192.83 355.78,202.60 329.58,222.27"/>
<polygon points="274.74,269.07 268.81,272.31 275.60,312.47"/>
<polygon points="159.97,151.77 145.34,144.01 188.24,159.18"/>
<polygon points="268.89,315.97 275.60,312.47 268.81,272.31"/>
<polygon points="388.49,228.58 400.67,215.37 431.79,197.35"/>
<polygon points="259.43,338.01 269.62,344.55 266.87,339.76"/>
<polygon points="396.46,194.61 372.47,229.14 366.76,204.73"/>
<polygon points="344.98,181.76 352.96,171.62 354.66,160.57"/>
<polygon points="366.76,204.73 372.47,229.14 355.78,202.60"/>
<polygon points="179.27,193.70 204.20,218.49 155.71,209.28"/>
<polygon points="179.27,193.70 155.71,209.28 157.18,168.16"/>
<polygon points="239.35,336.19 259.43,338.01 258.05,320.52"/>
<polygon points="315.27,237.40 329.58,222.27 321.75,248.23"/>
<polygon points="245.98,265.51 246.11,204.32 250.74,203.12"/>
<polygon points="268.34,47.28 275.17,63.61 287.52,65.52"/>
<polygon points="260.25,202.98 269.91,204.49 270.15,266.03"/>
<polygon points="310.44,290.54 315.36,296.71 275.60,312.47"/>
<polygon points="187.63,286.74 202.65,264.55 192.23,252.81"/>
<polygon points="243.65,271.56 240.71,268.89 240.91,318.25"/>
<polygon points="249.19,69.35 226.70,41.76 275.17,63.61"/>
<polygon points="267.78,335.34 259.43,338.01 266.87,339.76"/>
<polygon points="396.46,194.61 419.34,193.90 400.67,215.37"/>
<polygon points="368.25,135.70 354.66,160.57 327.67,139.16"/>
<polygon points="125.25,161.69 106.75,156.21 135.06,176.83"/>
<polygon points="268.89,315.97 305.33,293.36 275.60,312.47"/>
<polygon points="89.88,243.06 94.43,249.00 112.63,263.01"/>
<polygon points="192.23,252.81 202.65,264.55 199.46,233.84"/>
<polygon points="298.77,77.83 326.91,84.62 354.73,82.60"/>
<polygon points="267.78,335.34 262.07,324.58 259.43,338.01"/>
<polygon points="268.89,315.97 258.05,320.52 262.07,324.58"/>
<polygon points="187.63,286.74 192.23,252.81 164.52,274.98"/>
<polygon points="205.67,186.07 188.24,159.18 175.19,183.90"/>
<polygon points="317.74,63.26 326.91,84.62 298.77,77.83"/>
<polygon points="259.43,338.01 262.07,324.58 258.05,320.52"/>
<polygon points="397.70,284.48 401.45,299.89 399.28,264.42"/>
<polygon points="243.65,271.56 240.91,318.25 258.05,320.52"/>
<polygon points="272.02,206.47 274.74,269.07 273.79,267.82"/>
<polygon points="396.46,194.61 366.76,204.73 389.19,176.86"/>
<polygon points="199.07,210.09 205.67,186.07 189.82,196.20"/>
<polygon points="348.06,274.48 365.28,293.06 347.63,291.31"/>
<polygon points="422.25,235.48 416.91,257.13 399.28,264.42"/>
<polygon points="106.75,156.21 84.33,161.97 118.84,183.75"/>
<polygon points="157.18,168.16 170.59,142.58 158.34,143.74"/>
<polygon points="89.88,243.06 69.81,231.60 94.43,249.00"/>
<polygon points="179.35,62.79 211.14,66.16 188.35,83.85"/>
<polygon points="269.62,344.55 311.26,311.85 266.87,339.76"/>
<polygon points="343.45,123.88 354.73,82.60 346.55,103.09"/>
<polygon points="114.80,279.38 132.97,289.17 116.50,283.77"/>
<polygon points="199.07,210.09 189.82,196.20 199.46,233.84"/>
<polygon points="368.25,135.70 343.45,123.88 346.55,103.09"/>
<polygon points="325.77,283.17 309.87,278.03 311.96,268.61"/>
<polygon points="366.76,204.73 355.78,202.60 352.56,197.47"/>
<polygon points="441.75,233.89 422.25,235.48 431.79,197.35"/>
<polygon points="315.27,237.40 321.75,248.23 311.96,268.61"/>
<polygon points="310.44,290.54 275.60,312.47 305.33,293.36"/>
<polygon points="315.27,237.40 321.72,192.83 329.58,222.27"/>
<polygon points="89.88,196.07 118.84,183.75 84.33,161.97"/>
<polygon points="268.89,315.97 264.22,273.14 258.05,320.52"/>
<polygon points="125.25,161.69 135.06,176.83 145.34,144.01"/>
<polygon points="147.58,111.36 158.34,143.74 170.59,142.58"/>
<polygon points="255.98,237.59 294.08,246.32 288.18,235.15"/>
<polygon points="272.02,206.47 273.79,267.82 269.91,204.49"/>
<polygon points="396.46,194.61 389.19,176.86 419.34,193.90"/>
<polygon points="132.97,289.17 158.59,294.53 116.50,283.77"/>
<polygon points="161.83,271.50 158.59,294.53 164.52,274.98"/>
<polygon points="397.70,284.48 399.28,264.42 441.31,284.50"/>
<polygon points="269.62,344.55 316.70,309.03 311.26,311.85"/>
<polygon points="267.78,335.34 266.87,339.76 311.26,311.85"/>
<polygon points="431.79,197.35 400.67,215.37 419.34,193.90"/>
<polygon points="441.75,233.89 416.91,257.13 422.25,235.48"/>
<polygon points="114.80,279.38 122.32,239.37 112.63,263.01"/>
<polygon points="268.89,315.97 268.81,272.31 264.22,273.14"/>
<polygon points="243.90,207.07 240.71,268.89 243.65,271.56"/>
<polygon points="312.89,215.31 288.18,235.15 294.08,246.32"/>
<polygon points="226.70,41.76 211.14,66.16 224.98,44.59"/>
<polygon points="243.90,207.07 246.11,204.32 240.71,268.89"/>
<polygon points="344.98,181.76 361.66,161.05 332.92,209.72"/>
<polygon points="272.02,206.47 268.81,272.31 274.74,269.07"/>
<polygon points="106.75,156.21 118.84,183.75 135.06,176.83"/>
<polygon points="325.77,283.17 347.63,291.31 336.28,297.94"/>
<polygon points="256.54,273.34 243.65,271.56 258.05,320.52"/>
<polygon points="268.89,315.97 262.07,324.58 306.24,301.31"/>
<polygon points="441.31,284.50 399.28,264.42 416.91,257.13"/>
<polygon points="365.28,293.06 401.45,299.89 388.60,300.35"/>
<polygon points="321.72,192.83 352.56,197.47 355.78,202.60"/>
<polygon points="162.38,249.04 164.52,274.98 192.23,252.81"/>
<polygon points="75.96,209.71 69.81,231.60 79.95,200.95"/>
<polygon points="347.63,291.31 365.28,293.06 355.88,309.95"/>
<polygon points="267.78,335.34 306.24,301.31 262.07,324.58"/>
<polygon points="172.64,178.94 188.24,159.18 145.34,144.01"/>
<polygon points="172.64,178.94 175.19,183.90 188.24,159.18"/>
<polygon points="75.96,209.71 79.95,200.95 89.88,196.07"/>
<polygon points="256.54,273.34 258.05,320.52 264.22,273.14"/>
<polygon points="315.27,237.40 311.96,268.61 287.09,270.74"/>
<polygon points="397.70,284.48 388.60,300.35 401.45,299.89"/>
<polygon points="147.58,111.36 166.05,97.29 188.35,83.85"/>
<polygon points="205.67,186.07 175.19,183.90 189.82,196.20"/>
<polygon points="344.98,181.76 354.66,160.57 361.66,161.05"/>
<polygon points="368.25,135.70 361.66,161.05 354.66,160.57"/>
<polygon points="325.77,283.17 336.28,297.94 309.87,278.03"/>
<polygon points="397.70,284.48 441.31,284.50 407.70,298.99"/>
<polygon points="161.83,271.50 164.52,274.98 162.38,249.04"/>
<polygon points="366.76,204.73 352.56,197.47 389.19,176.86"/>
<polygon points="226.70,41.76 249.38,54.00 275.17,63.61"/>
<polygon points="441.31,284.50 442.28,285.00 407.70,298.99"/>
<polygon points="287.09,270.74 311.96,268.61 309.87,278.03"/>
<polygon points="155.71,209.28 204.20,218.49 182.79,214.99"/>
<polygon points="260.25,202.98 250.74,203.12 255.86,116.94"/>
<polygon points="89.88,196.07 92.57,197.36 118.84,183.75"/>
<polygon points="317.74,63.26 287.52,65.52 308.39,40.46"/>
<polygon points="161.83,271.50 116.50,283.77 158.59,294.53"/>
<polygon points="179.35,62.79 188.35,83.85 166.05,97.29"/>
<polygon points="114.80,279.38 116.50,283.77 122.32,239.37"/>
<polygon points="268.89,315.97 306.24,301.31 305.33,293.36"/>
<polygon points="332.92,209.72 359.41,213.77 312.89,215.31"/>
<polygon points="219.82,246.33 255.98,237.59 241.88,233.19"/>
<polygon points="226.70,41.76 224.98,44.59 249.38,54.00"/>
<polygon points="160.50,163.98 157.18,168.16 155.71,209.28"/>
<polygon points="172.64,178.94 145.34,144.01 135.06,176.83"/>
<polygon points="192.23,252.81 199.46,233.84 183.37,234.05"/>
<polygon points="225.34,231.29 204.20,218.49 219.82,246.33"/>
<polygon points="89.88,243.06 112.63,263.01 122.32,239.37"/>
<polygon points="355.88,309.95 365.28,293.06 388.60,300.35"/>
<polygon points="260.25,202.98 260.56,117.19 269.91,204.49"/>
<polygon points="267.78,335.34 311.26,311.85 309.97,307.73"/>
<polygon points="256.54,273.34 249.30,209.57 243.65,271.56"/>
<polygon points="172.64,178.94 135.06,176.83 158.71,195.28"/>
<polygon points="251.58,117.62 250.74,203.12 246.11,204.32"/>
<polygon points="172.64,178.94 158.71,195.28 175.19,183.90"/>
<polygon points="266.11,209.70 264.22,273.14 268.81,272.31"/>
<polygon points="89.88,243.06 79.95,200.95 69.81,231.60"/>
<polygon points="243.90,207.07 243.65,271.56 249.30,209.57"/>
<polygon points="267.78,335.34 309.97,307.73 306.24,301.31"/>
<polygon points="354.73,82.60 326.91,84.62 346.55,103.09"/>
<polygon points="158.71,195.28 189.82,196.20 175.19,183.90"/>
<polygon points="441.75,233.89 431.79,197.35 435.43,218.40"/>
<polygon points="336.28,297.94 347.63,291.31 355.88,309.95"/>
<polygon points="315.27,237.40 287.09,270.74 298.68,235.58"/>
<polygon points="397.70,284.48 407.70,298.99 388.60,300.35"/>
<polygon points="365.33,266.83 318.99,303.59 315.36,296.71"/>
<polygon points="266.11,209.70 268.81,272.31 272.02,206.47"/>
<polygon points="422.26,203.32 431.79,197.35 419.34,193.90"/>
<polygon points="256.54,273.34 264.22,273.14 260.35,210.34"/>
<polygon points="89.88,196.07 79.95,200.95 92.57,197.36"/>
<polygon points="366.33,269.79 316.70,309.03 318.99,303.59"/>
<polygon points="199.46,233.84 189.82,196.20 183.37,234.05"/>
<polygon points="160.50,163.98 170.59,142.58 157.18,168.16"/>
<polygon points="123.29,181.12 135.06,176.83 118.84,183.75"/>
<polygon points="402.02,189.17 419.34,193.90 389.19,176.86"/>
<polygon points="310.44,290.54 363.75,262.53 315.36,296.71"/>
<polygon points="441.31,284.50 423.95,245.30 442.28,285.00"/>
<polygon points="308.39,40.46 287.52,65.52 275.17,63.61"/>
<polygon points="441.75,233.89 434.89,237.61 416.91,257.13"/>
<polygon points="158.71,195.28 135.06,176.83 123.29,181.12"/>
<polygon points="272.02,206.47 269.91,204.49 264.38,118.16"/>
<polygon points="441.31,284.50 416.91,257.13 423.95,245.30"/>
<polygon points="162.38,249.04 192.23,252.81 183.37,234.05"/>
<polygon points="147.58,111.36 170.59,142.58 166.05,97.29"/>
<polygon points="317.74,63.26 330.09,56.65 326.91,84.62"/>
<polygon points="442.28,285.00 433.30,305.08 407.70,298.99"/>
<polygon points="321.72,192.83 327.60,182.48 352.56,197.47"/>
<polygon points="332.92,209.72 361.66,161.05 367.17,170.76"/>
<polygon points="225.34,231.29 182.79,214.99 204.20,218.49"/>
<polygon points="179.35,62.79 219.25,61.37 211.14,66.16"/>
<polygon points="315.27,237.40 315.74,225.28 321.72,192.83"/>
<polygon points="299.10,276.49 287.09,270.74 309.87,278.03"/>
<polygon points="243.90,207.07 249.27,118.16 246.11,204.32"/>
<polygon points="211.14,66.16 219.25,61.37 224.98,44.59"/>
<polygon points="256.54,273.34 260.35,210.34 249.30,209.57"/>
<polygon points="368.25,135.70 365.88,104.35 361.66,161.05"/>
<polygon points="269.05,261.06 255.98,237.59 288.18,235.15"/>
<polygon points="266.11,209.70 260.35,210.34 264.22,273.14"/>
<polygon points="225.34,231.29 219.82,246.33 241.88,233.19"/>
<polygon points="307.21,224.24 288.18,235.15 312.89,215.31"/>
<polygon points="139.27,232.79 111.07,223.04 122.32,239.37"/>
<polygon points="123.29,181.12 118.84,183.75 92.57,197.36"/>
<polygon points="422.26,203.32 435.43,218.40 431.79,197.35"/>
<polygon points="260.25,202.98 255.86,116.94 260.56,117.19"/>
<polygon points="368.25,135.70 346.55,103.09 365.88,104.35"/>
<polygon points="365.27,272.69 311.26,311.85 316.70,309.03"/>
<polygon points="273.08,56.42 275.17,63.61 249.38,54.00"/>
<polygon points="366.86,185.85 389.19,176.86 352.56,197.47"/>
<polygon points="251.58,117.62 255.86,116.94 250.74,203.12"/>
<polygon points="155.19,234.07 161.83,271.50 162.38,249.04"/>
<polygon points="332.92,209.72 367.17,170.76 359.41,213.77"/>
<polygon points="422.26,203.32 419.34,193.90 402.02,189.17"/>
<polygon points="441.75,233.89 435.43,218.40 434.89,237.61"/>
<polygon points="89.88,243.06 122.32,239.37 79.95,200.95"/>
<polygon points="269.05,261.06 241.88,233.19 255.98,237.59"/>
<polygon points="355.88,309.95 388.60,300.35 365.73,326.13"/>
<polygon points="111.07,223.04 92.57,197.36 79.95,200.95"/>
<polygon points="158.71,195.28 123.29,181.12 144.40,211.59"/>
<polygon points="161.83,271.50 140.10,246.87 116.50,283.77"/>
<polygon points="158.71,195.28 157.43,215.24 189.82,196.20"/>
<polygon points="315.27,237.40 298.68,235.58 315.74,225.28"/>
<polygon points="264.38,118.16 269.91,204.49 260.56,117.19"/>
<polygon points="139.27,232.79 122.32,239.37 140.10,246.87"/>
<polygon points="111.07,223.04 79.95,200.95 122.32,239.37"/>
<polygon points="317.74,63.26 308.39,40.46 330.09,56.65"/>
<polygon points="158.71,195.28 144.40,211.59 157.43,215.24"/>
<polygon points="139.27,232.79 157.43,215.24 144.40,211.59"/>
<polygon points="156.98,171.65 155.71,209.28 182.79,214.99"/>
<polygon points="155.19,234.07 162.38,249.04 183.37,234.05"/>
<polygon points="140.10,246.87 122.32,239.37 116.50,283.77"/>
<polygon points="358.41,262.08 310.44,290.54 305.33,293.36"/>
<polygon points="155.19,234.07 139.27,232.79 140.10,246.87"/>
<polygon points="139.27,232.79 116.20,209.03 111.07,223.04"/>
<polygon points="434.89,237.61 423.95,245.30 416.91,257.13"/>
<polygon points="266.11,209.70 272.02,206.47 264.87,119.45"/>
<polygon points="251.58,117.62 246.11,204.32 249.27,118.16"/>
<polygon points="155.19,234.07 157.43,215.24 139.27,232.79"/>
<polygon points="411.43,302.76 388.60,300.35 407.70,298.99"/>
<polygon points="139.27,232.79 144.40,211.59 116.20,209.03"/>
<polygon points="287.09,270.74 298.70,246.76 298.68,235.58"/>
<polygon points="160.50,163.98 155.71,209.28 156.98,171.65"/>
<polygon points="366.86,185.85 352.56,197.47 327.60,182.48"/>
<polygon points="336.28,297.94 355.88,309.95 343.04,317.68"/>
<polygon points="243.90,207.07 249.30,209.57 250.49,120.23"/>
<polygon points="402.02,189.17 389.19,176.86 381.10,187.00"/>
<polygon points="224.98,44.59 219.25,61.37 249.38,54.00"/>
<polygon points="155.19,234.07 140.10,246.87 161.83,271.50"/>
<polygon points="273.08,56.42 308.39,40.46 275.17,63.61"/>
<polygon points="365.33,266.83 315.36,296.71 363.75,262.53"/>
<polygon points="321.72,192.83 321.33,207.10 327.60,182.48"/>
<polygon points="365.33,266.83 366.33,269.79 318.99,303.59"/>
<polygon points="111.07,223.04 116.20,209.03 92.57,197.36"/>
<polygon points="442.28,285.00 446.98,266.10 433.30,305.08"/>
<polygon points="299.10,276.49 298.70,246.76 287.09,270.74"/>
<polygon points="157.43,215.24 183.37,234.05 189.82,196.20"/>
<polygon points="442.28,285.00 423.95,245.30 446.98,266.10"/>
<polygon points="362.51,274.03 309.97,307.73 311.26,311.85"/>
<polygon points="355.88,309.95 365.73,326.13 343.04,317.68"/>
<polygon points="312.89,215.31 359.41,213.77 335.15,211.10"/>
<polygon points="331.18,98.35 346.55,103.09 326.91,84.62"/>
<polygon points="366.86,185.85 381.10,187.00 389.19,176.86"/>
<polygon points="272.02,206.47 264.38,118.16 264.87,119.45"/>
<polygon points="365.27,272.69 316.70,309.03 366.33,269.79"/>
<polygon points="336.28,297.94 296.95,300.21 309.87,278.03"/>
<polygon points="411.43,302.76 407.70,298.99 433.30,305.08"/>
<polygon points="307.21,224.24 312.89,215.31 335.15,211.10"/>
<polygon points="310.44,290.54 361.91,260.06 363.75,262.53"/>
<polygon points="123.29,181.12 92.57,197.36 116.20,209.03"/>
<polygon points="306.24,301.31 358.83,266.57 305.33,293.36"/>
<polygon points="321.72,192.83 315.74,225.28 321.33,207.10"/>
<polygon points="155.19,234.07 183.37,234.05 157.43,215.24"/>
<polygon points="170.59,142.58 153.59,107.78 166.05,97.29"/>
<polygon points="299.10,276.49 309.87,278.03 296.95,300.21"/>
<polygon points="266.11,209.70 262.73,120.72 260.35,210.34"/>
<polygon points="243.90,207.07 250.49,120.23 249.27,118.16"/>
<polygon points="123.29,181.12 116.20,209.03 144.40,211.59"/>
<polygon points="258.89,121.27 249.30,209.57 260.35,210.34"/>
<polygon points="306.24,301.31 309.97,307.73 358.83,266.57"/>
<polygon points="376.37,309.93 365.73,326.13 388.60,300.35"/>
<polygon points="330.09,56.65 331.18,98.35 326.91,84.62"/>
<polygon points="358.41,262.08 361.91,260.06 310.44,290.54"/>
<polygon points="257.19,116.80 260.56,117.19 255.86,116.94"/>
<polygon points="257.19,116.80 255.86,116.94 251.58,117.62"/>
<polygon points="225.34,231.29 241.88,233.19 246.90,239.78"/>
<polygon points="346.26,150.28 367.17,170.76 361.66,161.05"/>
<polygon points="422.26,203.32 450.59,208.96 435.43,218.40"/>
<polygon points="435.43,218.40 450.59,208.96 434.89,237.61"/>
<polygon points="434.89,237.61 451.52,249.28 423.95,245.30"/>
<polygon points="202.86,80.50 179.35,62.79 166.05,97.29"/>
<polygon points="331.18,98.35 365.88,104.35 346.55,103.09"/>
<polygon points="257.19,116.80 264.38,118.16 260.56,117.19"/>
<polygon points="298.70,246.76 315.74,225.28 298.68,235.58"/>
<polygon points="346.26,150.28 361.66,161.05 365.88,104.35"/>
<polygon points="160.50,163.98 145.40,152.53 170.59,142.58"/>
<polygon points="358.30,180.84 366.86,185.85 327.60,182.48"/>
<polygon points="365.27,272.69 362.51,274.03 311.26,311.85"/>
<polygon points="411.43,302.76 394.19,330.52 388.60,300.35"/>
<polygon points="266.11,209.70 264.87,119.45 262.73,120.72"/>
<polygon points="429.74,181.11 422.26,203.32 402.02,189.17"/>
<polygon points="273.08,56.42 249.38,54.00 245.93,35.00"/>
<polygon points="376.37,309.93 388.60,300.35 394.19,330.52"/>
<polygon points="269.05,261.06 246.90,239.78 241.88,233.19"/>
<polygon points="257.19,116.80 251.58,117.62 249.27,118.16"/>
<polygon points="249.30,209.57 254.12,120.29 250.49,120.23"/>
<polygon points="257.19,116.80 264.87,119.45 264.38,118.16"/>
<polygon points="336.28,297.94 343.04,317.68 327.16,302.87"/>
<polygon points="258.89,121.27 254.12,120.29 249.30,209.57"/>
<polygon points="202.86,80.50 219.25,61.37 179.35,62.79"/>
<polygon points="258.89,121.27 260.35,210.34 262.73,120.72"/>
<polygon points="367.17,170.76 335.15,211.10 359.41,213.77"/>
<polygon points="336.28,297.94 327.16,302.87 296.95,300.21"/>
<polygon points="434.89,237.61 450.59,208.96 451.52,249.28"/>
<polygon points="257.19,116.80 249.27,118.16 250.49,120.23"/>
<polygon points="245.93,35.00 249.38,54.00 219.25,61.37"/>
<polygon points="307.21,224.24 280.72,233.43 288.18,235.15"/>
<polygon points="358.41,262.08 305.33,293.36 358.83,266.57"/>
<polygon points="360.30,271.53 309.97,307.73 362.51,274.03"/>
<polygon points="406.48,174.93 402.02,189.17 381.10,187.00"/>
<polygon points="411.43,302.76 433.30,305.08 428.82,286.93"/>
<polygon points="257.19,116.80 262.73,120.72 264.87,119.45"/>
<polygon points="225.34,231.29 162.91,222.71 182.79,214.99"/>
<polygon points="170.59,142.58 145.40,152.53 153.59,107.78"/>
<polygon points="365.33,266.83 365.27,272.69 366.33,269.79"/>
<polygon points="269.05,261.06 288.18,235.15 280.72,233.43"/>
<polygon points="365.33,266.83 363.75,262.53 361.91,260.06"/>
<polygon points="428.82,286.93 433.30,305.08 446.98,266.10"/>
<polygon points="365.33,266.83 361.91,260.06 365.27,272.69"/>
<polygon points="360.30,271.53 358.83,266.57 309.97,307.73"/>
<polygon points="257.19,116.80 250.49,120.23 254.12,120.29"/>
<polygon points="156.98,171.65 182.79,214.99 161.14,194.27"/>
<polygon points="273.08,56.42 306.48,49.87 308.39,40.46"/>
<polygon points="325.34,80.11 331.18,98.35 330.09,56.65"/>
<polygon points="257.19,116.80 258.89,121.27 262.73,120.72"/>
<polygon points="328.79,177.16 327.60,182.48 321.33,207.10"/>
<polygon points="299.10,276.49 293.13,265.51 298.70,246.76"/>
<polygon points="299.10,276.49 296.95,300.21 293.13,265.51"/>
<polygon points="358.30,180.84 327.60,182.48 328.79,177.16"/>
<polygon points="257.19,116.80 254.12,120.29 258.89,121.27"/>
<polygon points="366.86,185.85 376.75,167.78 381.10,187.00"/>
<polygon points="445.89,267.59 423.95,245.30 451.52,249.28"/>
<polygon points="429.74,181.11 402.02,189.17 406.48,174.93"/>
<polygon points="365.27,272.69 361.91,260.06 362.51,274.03"/>
<polygon points="445.89,267.59 446.98,266.10 423.95,245.30"/>
<polygon points="308.39,40.46 306.48,49.87 330.09,56.65"/>
<polygon points="358.30,180.84 376.75,167.78 366.86,185.85"/>
<polygon points="376.37,309.93 368.53,312.61 365.73,326.13"/>
<polygon points="368.53,312.61 343.04,317.68 365.73,326.13"/>
<polygon points="348.04,105.02 365.88,104.35 331.18,98.35"/>
<polygon points="153.59,107.78 190.06,96.96 166.05,97.29"/>
<polygon points="426.95,212.06 450.59,208.96 422.26,203.32"/>
<polygon points="358.41,262.08 362.51,274.03 361.91,260.06"/>
<polygon points="346.26,150.28 365.88,104.35 348.04,105.02"/>
<polygon points="160.50,163.98 156.98,171.65 187.57,159.26"/>
<polygon points="225.34,231.29 246.90,239.78 222.49,251.47"/>
<polygon points="412.06,306.32 394.19,330.52 411.43,302.76"/>
<polygon points="426.95,212.06 422.26,203.32 429.74,181.11"/>
<polygon points="445.89,267.59 428.82,286.93 446.98,266.10"/>
<polygon points="298.70,246.76 294.75,209.04 315.74,225.28"/>
<polygon points="294.75,209.04 321.33,207.10 315.74,225.28"/>
<polygon points="412.06,306.32 411.43,302.76 428.82,286.93"/>
<polygon points="161.14,194.27 182.79,214.99 162.91,222.71"/>
<polygon points="202.86,80.50 166.05,97.29 190.06,96.96"/>
<polygon points="343.04,317.68 336.45,310.10 327.16,302.87"/>
<polygon points="269.05,261.06 280.72,233.43 246.90,239.78"/>
<polygon points="376.37,309.93 394.19,330.52 368.53,312.61"/>
<polygon points="325.34,80.11 348.04,105.02 331.18,98.35"/>
<polygon points="358.41,262.08 360.30,271.53 362.51,274.03"/>
<polygon points="346.26,150.28 352.65,170.48 367.17,170.76"/>
<polygon points="296.95,300.21 327.16,302.87 315.03,293.74"/>
<polygon points="307.21,224.24 335.15,211.10 346.36,223.80"/>
<polygon points="273.08,56.42 245.93,35.00 287.16,70.38"/>
<polygon points="387.78,182.00 406.48,174.93 381.10,187.00"/>
<polygon points="273.08,56.42 287.16,70.38 306.48,49.87"/>
<polygon points="358.41,262.08 358.83,266.57 360.30,271.53"/>
<polygon points="225.34,231.29 208.58,218.72 162.91,222.71"/>
<polygon points="367.17,170.76 352.65,170.48 335.15,211.10"/>
<polygon points="225.34,231.29 222.49,251.47 208.58,218.72"/>
<polygon points="387.78,182.00 381.10,187.00 376.75,167.78"/>
<polygon points="160.50,163.98 187.57,159.26 145.40,152.53"/>
<polygon points="296.95,300.21 315.03,293.74 293.13,265.51"/>
<polygon points="358.30,180.84 328.79,177.16 376.75,167.78"/>
<polygon points="325.34,80.11 330.09,56.65 300.26,73.24"/>
<polygon points="202.86,80.50 215.06,68.28 219.25,61.37"/>
<polygon points="440.90,223.63 451.52,249.28 450.59,208.96"/>
<polygon points="215.06,68.28 245.93,35.00 219.25,61.37"/>
<polygon points="445.82,248.41 445.89,267.59 451.52,249.28"/>
<polygon points="368.53,312.61 336.45,310.10 343.04,317.68"/>
<polygon points="330.09,56.65 306.48,49.87 300.26,73.24"/>
<polygon points="172.61,115.03 190.06,96.96 153.59,107.78"/>
<polygon points="327.16,302.87 336.45,310.10 315.03,293.74"/>
<polygon points="346.26,150.28 348.04,105.02 368.77,142.98"/>
<polygon points="308.25,194.19 328.79,177.16 321.33,207.10"/>
<polygon points="156.98,171.65 161.14,194.27 187.57,159.26"/>
<polygon points="298.70,246.76 293.13,265.51 287.00,247.24"/>
<polygon points="307.21,224.24 346.36,223.80 280.72,233.43"/>
<polygon points="396.41,311.64 394.19,330.52 412.06,306.32"/>
<polygon points="396.41,311.64 368.53,312.61 394.19,330.52"/>
<polygon points="440.90,223.63 445.82,248.41 451.52,249.28"/>
<polygon points="294.75,209.04 308.25,194.19 321.33,207.10"/>
<polygon points="346.26,150.28 368.77,142.98 352.65,170.48"/>
<polygon points="419.39,194.64 429.74,181.11 406.48,174.93"/>
<polygon points="356.76,178.81 376.75,167.78 328.79,177.16"/>
<polygon points="440.90,223.63 450.59,208.96 426.95,212.06"/>
<polygon points="387.78,182.00 376.75,167.78 356.76,178.81"/>
<polygon points="445.89,267.59 447.12,295.61 428.82,286.93"/>
<polygon points="298.70,246.76 287.00,247.24 294.75,209.04"/>
<polygon points="173.09,152.53 153.59,107.78 145.40,152.53"/>
<polygon points="172.61,115.03 153.59,107.78 173.09,152.53"/>
<polygon points="387.78,182.00 419.39,194.64 406.48,174.93"/>
<polygon points="412.06,306.32 428.82,286.93 447.12,295.61"/>
<polygon points="259.09,232.13 246.90,239.78 280.72,233.43"/>
<polygon points="352.65,170.48 346.36,223.80 335.15,211.10"/>
<polygon points="259.09,232.13 222.49,251.47 246.90,239.78"/>
<polygon points="308.82,312.58 315.03,293.74 336.45,310.10"/>
<polygon points="426.95,212.06 429.74,181.11 419.39,194.64"/>
<polygon points="304.10,266.71 293.13,265.51 315.03,293.74"/>
<polygon points="306.48,49.87 287.16,70.38 300.26,73.24"/>
<polygon points="325.34,80.11 342.31,87.34 348.04,105.02"/>
<polygon points="162.91,222.71 208.58,218.72 209.86,209.41"/>
<polygon points="209.86,209.41 208.58,218.72 222.49,251.47"/>
<polygon points="250.67,72.15 245.93,35.00 215.06,68.28"/>
<polygon points="202.86,80.50 190.06,96.96 192.94,70.94"/>
<polygon points="161.14,194.27 162.91,222.71 190.76,189.60"/>
<polygon points="250.67,72.15 287.16,70.38 245.93,35.00"/>
<polygon points="304.10,266.71 287.00,247.24 293.13,265.51"/>
<polygon points="202.86,80.50 192.94,70.94 215.06,68.28"/>
<polygon points="161.14,194.27 190.76,189.60 187.57,159.26"/>
<polygon points="173.09,152.53 145.40,152.53 187.57,159.26"/>
<polygon points="300.00,288.42 315.03,293.74 308.82,312.58"/>
<polygon points="440.90,223.63 426.95,212.06 419.39,194.64"/>
<polygon points="445.82,248.41 447.37,262.59 445.89,267.59"/>
<polygon points="172.61,115.03 161.94,110.00 190.06,96.96"/>
<polygon points="325.34,80.11 300.26,73.24 342.31,87.34"/>
<polygon points="329.60,312.74 308.82,312.58 336.45,310.10"/>
<polygon points="368.53,312.61 355.47,327.07 336.45,310.10"/>
<polygon points="308.25,194.19 360.46,176.62 328.79,177.16"/>
<polygon points="356.76,178.81 328.79,177.16 360.46,176.62"/>
<polygon points="396.41,311.64 374.44,318.66 368.53,312.61"/>
<polygon points="294.75,209.04 321.15,216.11 308.25,194.19"/>
<polygon points="396.41,311.64 412.06,306.32 405.96,321.24"/>
<polygon points="440.90,223.63 453.62,234.13 445.82,248.41"/>
<polygon points="300.00,288.42 304.10,266.71 315.03,293.74"/>
<polygon points="387.78,182.00 394.10,174.10 419.39,194.64"/>
<polygon points="387.78,182.00 356.76,178.81 368.22,192.23"/>
<polygon points="327.80,117.52 368.77,142.98 348.04,105.02"/>
<polygon points="412.06,306.32 447.12,295.61 411.98,297.17"/>
<polygon points="162.91,222.71 209.86,209.41 190.76,189.60"/>
<polygon points="172.61,115.03 173.09,152.53 161.94,110.00"/>
<polygon points="300.26,73.24 287.16,70.38 290.45,62.12"/>
<polygon points="352.65,170.48 368.77,142.98 354.67,151.32"/>
<polygon points="359.30,307.37 368.53,312.61 374.44,318.66"/>
<polygon points="329.60,312.74 336.45,310.10 355.47,327.07"/>
<polygon points="259.09,232.13 230.32,232.15 222.49,251.47"/>
<polygon points="412.06,306.32 411.98,297.17 405.96,321.24"/>
<polygon points="218.66,66.17 250.67,72.15 215.06,68.28"/>
<polygon points="325.42,219.25 280.72,233.43 346.36,223.80"/>
<polygon points="440.90,223.63 419.39,194.64 447.86,210.54"/>
<polygon points="445.82,248.41 453.62,234.13 447.37,262.59"/>
<polygon points="359.30,307.37 355.47,327.07 368.53,312.61"/>
<polygon points="209.86,209.41 222.49,251.47 230.32,232.15"/>
<polygon points="192.94,70.94 190.06,96.96 203.93,107.92"/>
<polygon points="445.89,267.59 423.07,281.17 447.12,295.61"/>
<polygon points="190.06,96.96 161.94,110.00 203.93,107.92"/>
<polygon points="294.75,209.04 287.00,247.24 301.97,234.41"/>
<polygon points="218.66,66.17 215.06,68.28 192.94,70.94"/>
<polygon points="352.65,170.48 341.82,180.90 346.36,223.80"/>
<polygon points="396.41,311.64 405.96,321.24 374.44,318.66"/>
<polygon points="387.78,182.00 368.22,192.23 394.10,174.10"/>
<polygon points="337.86,203.39 308.25,194.19 321.15,216.11"/>
<polygon points="250.67,72.15 261.22,61.36 287.16,70.38"/>
<polygon points="440.90,223.63 434.53,231.72 453.62,234.13"/>
<polygon points="342.31,87.34 327.80,117.52 348.04,105.02"/>
<polygon points="445.89,267.59 447.37,262.59 423.07,281.17"/>
<polygon points="303.09,253.32 287.00,247.24 304.10,266.71"/>
<polygon points="337.86,203.39 360.46,176.62 308.25,194.19"/>
<polygon points="294.75,209.04 301.97,234.41 321.15,216.11"/>
<polygon points="277.25,242.36 259.09,232.13 280.72,233.43"/>
<polygon points="440.90,223.63 447.86,210.54 434.53,231.72"/>
<polygon points="261.22,61.36 290.45,62.12 287.16,70.38"/>
<polygon points="324.67,163.18 352.65,170.48 354.67,151.32"/>
<polygon points="303.09,253.32 304.10,266.71 300.00,288.42"/>
<polygon points="356.76,178.81 360.46,176.62 368.22,192.23"/>
<polygon points="300.00,288.42 308.82,312.58 327.14,307.88"/>
<polygon points="342.31,87.34 300.26,73.24 304.13,95.58"/>
<polygon points="173.09,152.53 187.57,159.26 170.07,162.23"/>
<polygon points="419.39,194.64 394.10,174.10 424.76,201.79"/>
<polygon points="324.67,163.18 341.82,180.90 352.65,170.48"/>
<polygon points="325.42,219.25 292.83,208.71 280.72,233.43"/>
<polygon points="419.39,194.64 424.76,201.79 447.86,210.54"/>
<polygon points="170.07,162.23 187.57,159.26 190.76,189.60"/>
<polygon points="329.60,312.74 327.14,307.88 308.82,312.58"/>
<polygon points="327.80,117.52 354.67,151.32 368.77,142.98"/>
<polygon points="304.13,95.58 300.26,73.24 290.45,62.12"/>
<polygon points="218.66,66.17 243.42,85.24 250.67,72.15"/>
<polygon points="303.09,253.32 301.97,234.41 287.00,247.24"/>
<polygon points="423.07,281.17 411.98,297.17 447.12,295.61"/>
<polygon points="329.60,312.74 355.47,327.07 344.87,305.58"/>
<polygon points="325.42,219.25 346.36,223.80 341.82,180.90"/>
<polygon points="250.67,72.15 243.42,85.24 261.22,61.36"/>
<polygon points="277.25,242.36 280.72,233.43 292.83,208.71"/>
<polygon points="349.42,292.95 355.47,327.07 359.30,307.37"/>
<polygon points="173.09,152.53 178.61,130.67 161.94,110.00"/>
<polygon points="277.25,242.36 230.32,232.15 259.09,232.13"/>
<polygon points="337.86,203.39 353.41,202.97 360.46,176.62"/>
<polygon points="198.15,92.05 192.94,70.94 203.93,107.92"/>
<polygon points="440.61,241.82 447.37,262.59 453.62,234.13"/>
<polygon points="303.09,253.32 300.00,288.42 307.22,268.02"/>
<polygon points="198.15,92.05 218.66,66.17 192.94,70.94"/>
<polygon points="190.22,174.89 190.76,189.60 209.86,209.41"/>
<polygon points="440.61,241.82 453.62,234.13 434.53,231.72"/>
<polygon points="368.22,192.23 360.46,176.62 353.41,202.97"/>
<polygon points="359.30,307.37 374.44,318.66 388.59,316.00"/>
<polygon points="317.53,234.57 321.15,216.11 301.97,234.41"/>
<polygon points="349.42,292.95 344.87,305.58 355.47,327.07"/>
<polygon points="324.67,163.18 354.67,151.32 327.80,117.52"/>
<polygon points="198.15,92.05 243.42,85.24 218.66,66.17"/>
<polygon points="413.19,286.17 405.96,321.24 411.98,297.17"/>
<polygon points="342.31,87.34 304.13,95.58 327.80,117.52"/>
<polygon points="207.37,116.34 203.93,107.92 161.94,110.00"/>
<polygon points="374.44,318.66 405.96,321.24 388.59,316.00"/>
<polygon points="394.10,174.10 404.67,202.94 424.76,201.79"/>
<polygon points="303.09,253.32 325.27,256.79 301.97,234.41"/>
<polygon points="368.22,192.23 404.67,202.94 394.10,174.10"/>
<polygon points="329.60,312.74 344.87,305.58 327.14,307.88"/>
<polygon points="209.86,209.41 230.32,232.15 227.47,227.00"/>
<polygon points="436.88,216.30 434.53,231.72 447.86,210.54"/>
<polygon points="324.67,163.18 317.70,173.26 341.82,180.90"/>
<polygon points="436.88,216.30 447.86,210.54 424.76,201.79"/>
<polygon points="300.00,288.42 327.14,307.88 307.22,268.02"/>
<polygon points="423.07,281.17 447.37,262.59 426.35,259.81"/>
<polygon points="317.53,234.57 301.97,234.41 325.27,256.79"/>
<polygon points="303.09,253.32 307.22,268.02 325.27,256.79"/>
<polygon points="334.86,208.98 337.86,203.39 321.15,216.11"/>
<polygon points="413.19,286.17 411.98,297.17 423.07,281.17"/>
<polygon points="349.42,292.95 359.30,307.37 388.59,316.00"/>
<polygon points="266.16,106.62 261.22,61.36 243.42,85.24"/>
<polygon points="327.80,117.52 304.13,95.58 302.65,116.55"/>
<polygon points="440.61,241.82 426.35,259.81 447.37,262.59"/>
<polygon points="198.15,92.05 203.93,107.92 207.37,116.34"/>
<polygon points="261.22,61.36 288.50,80.70 290.45,62.12"/>
<polygon points="207.37,116.34 161.94,110.00 178.61,130.67"/>
<polygon points="198.15,92.05 207.37,116.34 243.42,85.24"/>
<polygon points="334.86,208.98 321.15,216.11 317.53,234.57"/>
<polygon points="304.13,95.58 290.45,62.12 288.50,80.70"/>
<polygon points="440.61,241.82 434.53,231.72 422.18,234.69"/>
<polygon points="376.40,193.25 368.22,192.23 353.41,202.97"/>
<polygon points="436.88,216.30 424.76,201.79 404.67,202.94"/>
<polygon points="325.42,219.25 309.56,197.62 292.83,208.71"/>
<polygon points="349.42,292.95 325.85,266.17 344.87,305.58"/>
<polygon points="436.88,216.30 422.18,234.69 434.53,231.72"/>
<polygon points="334.86,208.98 353.41,202.97 337.86,203.39"/>
<polygon points="190.22,174.89 170.07,162.23 190.76,189.60"/>
<polygon points="413.19,286.17 388.59,316.00 405.96,321.24"/>
<polygon points="325.27,256.79 307.22,268.02 325.85,266.17"/>
<polygon points="325.42,219.25 341.82,180.90 309.56,197.62"/>
<polygon points="376.40,193.25 404.67,202.94 368.22,192.23"/>
<polygon points="188.95,122.12 178.61,130.67 173.09,152.53"/>
<polygon points="324.67,163.18 327.80,117.52 321.53,130.29"/>
<polygon points="277.25,242.36 292.83,208.71 289.92,198.19"/>
<polygon points="302.65,116.55 304.13,95.58 288.50,80.70"/>
<polygon points="388.07,266.58 413.19,286.17 423.07,281.17"/>
<polygon points="188.95,122.12 173.09,152.53 170.07,162.23"/>
<polygon points="327.14,307.88 344.87,305.58 325.85,266.17"/>
<polygon points="219.11,175.62 209.86,209.41 227.47,227.00"/>
<polygon points="349.42,292.95 388.59,316.00 370.41,284.32"/>
<polygon points="190.22,174.89 209.86,209.41 219.11,175.62"/>
<polygon points="324.67,163.18 321.53,130.29 317.70,173.26"/>
<polygon points="277.25,242.36 227.47,227.00 230.32,232.15"/>
<polygon points="404.57,225.09 422.18,234.69 404.67,202.94"/>
<polygon points="440.61,241.82 422.18,234.69 426.35,259.81"/>
<polygon points="309.56,197.62 341.82,180.90 317.70,173.26"/>
<polygon points="436.88,216.30 404.67,202.94 422.18,234.69"/>
<polygon points="266.16,106.62 288.50,80.70 261.22,61.36"/>
<polygon points="309.56,197.62 289.92,198.19 292.83,208.71"/>
<polygon points="317.53,234.57 325.27,256.79 326.45,235.60"/>
<polygon points="423.07,281.17 426.35,259.81 411.38,273.01"/>
<polygon points="303.23,175.08 309.56,197.62 317.70,173.26"/>
<polygon points="249.11,91.22 243.42,85.24 207.37,116.34"/>
<polygon points="327.14,307.88 325.85,266.17 307.22,268.02"/>
<polygon points="388.07,266.58 370.41,284.32 388.59,316.00"/>
<polygon points="327.80,117.52 302.65,116.55 321.53,130.29"/>
<polygon points="388.07,266.58 423.07,281.17 411.38,273.01"/>
<polygon points="325.27,256.79 325.85,266.17 338.32,252.12"/>
<polygon points="249.11,91.22 266.16,106.62 243.42,85.24"/>
<polygon points="376.40,193.25 353.41,202.97 356.22,216.64"/>
<polygon points="266.16,106.62 302.65,116.55 288.50,80.70"/>
<polygon points="388.07,266.58 388.59,316.00 413.19,286.17"/>
<polygon points="426.35,259.81 422.18,234.69 411.38,273.01"/>
<polygon points="303.23,175.08 317.70,173.26 288.17,145.44"/>
<polygon points="303.23,175.08 289.92,198.19 309.56,197.62"/>
<polygon points="353.16,276.83 349.42,292.95 370.41,284.32"/>
<polygon points="334.86,208.98 356.22,216.64 353.41,202.97"/>
<polygon points="266.16,106.62 271.37,131.70 302.65,116.55"/>
<polygon points="404.57,225.09 404.67,202.94 392.17,203.45"/>
<polygon points="353.16,276.83 325.85,266.17 349.42,292.95"/>
<polygon points="188.95,122.12 207.37,116.34 178.61,130.67"/>
<polygon points="325.27,256.79 338.32,252.12 326.45,235.60"/>
<polygon points="376.40,193.25 392.17,203.45 404.67,202.94"/>
<polygon points="388.07,266.58 380.50,270.93 370.41,284.32"/>
<polygon points="404.57,225.09 407.92,233.98 422.18,234.69"/>
<polygon points="277.25,242.36 289.92,198.19 261.20,191.30"/>
<polygon points="334.86,208.98 317.53,234.57 326.45,235.60"/>
<polygon points="288.17,145.44 317.70,173.26 321.53,130.29"/>
<polygon points="321.53,130.29 302.65,116.55 271.37,131.70"/>
<polygon points="288.17,145.44 271.37,131.70 249.55,169.55"/>
<polygon points="303.23,175.08 274.41,174.28 289.92,198.19"/>
<polygon points="190.22,174.89 188.95,122.12 170.07,162.23"/>
<polygon points="219.11,175.62 261.20,191.30 249.55,169.55"/>
<polygon points="277.25,242.36 261.20,191.30 227.47,227.00"/>
<polygon points="221.92,135.36 207.37,116.34 188.95,122.12"/>
<polygon points="376.40,193.25 356.22,216.64 392.17,203.45"/>
<polygon points="404.57,225.09 392.17,203.45 373.67,232.24"/>
<polygon points="219.11,175.62 249.55,169.55 212.26,164.65"/>
<polygon points="221.92,135.36 212.26,164.65 249.55,169.55"/>
<polygon points="388.07,266.58 411.38,273.01 380.50,270.93"/>
<polygon points="407.92,233.98 411.38,273.01 422.18,234.69"/>
<polygon points="221.92,135.36 249.55,169.55 230.10,120.23"/>
<polygon points="249.11,91.22 271.37,131.70 266.16,106.62"/>
<polygon points="221.92,135.36 230.10,120.23 207.37,116.34"/>
<polygon points="404.57,225.09 373.67,232.24 407.92,233.98"/>
<polygon points="271.37,131.70 230.10,120.23 249.55,169.55"/>
<polygon points="303.23,175.08 288.17,145.44 274.41,174.28"/>
<polygon points="288.17,145.44 249.55,169.55 274.41,174.28"/>
<polygon points="249.11,91.22 207.37,116.34 230.10,120.23"/>
<polygon points="219.11,175.62 227.47,227.00 261.20,191.30"/>
<polygon points="392.17,203.45 356.22,216.64 373.67,232.24"/>
<polygon points="353.16,276.83 370.41,284.32 380.50,270.93"/>
<polygon points="261.20,191.30 274.41,174.28 249.55,169.55"/>
<polygon points="334.86,208.98 357.17,231.05 356.22,216.64"/>
<polygon points="190.22,174.89 219.11,175.62 212.26,164.65"/>
<polygon points="288.17,145.44 321.53,130.29 271.37,131.70"/>
<polygon points="373.67,232.24 356.22,216.64 357.17,231.05"/>
<polygon points="362.65,237.63 338.32,252.12 325.85,266.17"/>
<polygon points="261.20,191.30 289.92,198.19 274.41,174.28"/>
<polygon points="190.22,174.89 212.26,164.65 188.95,122.12"/>
<polygon points="407.92,233.98 384.06,248.67 411.38,273.01"/>
<polygon points="221.92,135.36 188.95,122.12 212.26,164.65"/>
<polygon points="380.50,270.93 411.38,273.01 384.06,248.67"/>
<polygon points="249.11,91.22 230.10,120.23 271.37,131.70"/>
<polygon points="334.86,208.98 326.45,235.60 357.17,231.05"/>
<polygon points="357.17,231.05 326.45,235.60 338.32,252.12"/>
<polygon points="407.92,233.98 373.67,232.24 384.06,248.67"/>
<polygon points="362.65,237.63 325.85,266.17 353.16,276.83"/>
<polygon points="362.65,237.63 384.06,248.67 373.67,232.24"/>
<polygon points="362.65,237.63 357.17,231.05 338.32,252.12"/>
<polygon points="362.65,237.63 373.67,232.24 357.17,231.05"/>
<polygon points="362.65,237.63 380.50,270.93 384.06,248.67"/>
<polygon points="362.65,237.63 353.16,276.83 380.50,270.93"/>
</g>
<text x="256" y="488" text-anchor="middle" font-family="sans-serif" font-size="14" fill="#354b5b">1,000 target · 1,096 observed triangles</text>
</svg>
